<mxfile host="Electron" agent="Mozilla/5.0 (Windows NT 10.0; Win64; x64) AppleWebKit/537.36 (KHTML, like Gecko) draw.io/24.7.17 Chrome/128.0.6613.36 Electron/32.0.1 Safari/537.36" version="24.7.17">
  <diagram name="Página-1" id="VvOBNZM0noPrcV1y0CAg">
    <mxGraphModel dx="1235" dy="1900" grid="1" gridSize="10" guides="1" tooltips="1" connect="1" arrows="1" fold="1" page="1" pageScale="1" pageWidth="827" pageHeight="1169" math="0" shadow="0">
      <root>
        <mxCell id="0" />
        <mxCell id="1" parent="0" />
        <mxCell id="bT47Z3AIuODtI_xXSzZV-3" value="" style="edgeStyle=orthogonalEdgeStyle;rounded=0;orthogonalLoop=1;jettySize=auto;html=1;" parent="1" source="bT47Z3AIuODtI_xXSzZV-1" target="bT47Z3AIuODtI_xXSzZV-2" edge="1">
          <mxGeometry relative="1" as="geometry" />
        </mxCell>
        <mxCell id="bT47Z3AIuODtI_xXSzZV-1" value="Realizar uma Encomenda" style="ellipse;whiteSpace=wrap;html=1;" parent="1" vertex="1">
          <mxGeometry x="10" y="20" width="120" height="80" as="geometry" />
        </mxCell>
        <mxCell id="bT47Z3AIuODtI_xXSzZV-5" value="" style="edgeStyle=orthogonalEdgeStyle;rounded=0;orthogonalLoop=1;jettySize=auto;html=1;" parent="1" source="bT47Z3AIuODtI_xXSzZV-4" target="bT47Z3AIuODtI_xXSzZV-2" edge="1">
          <mxGeometry relative="1" as="geometry">
            <mxPoint x="240" y="80" as="sourcePoint" />
            <mxPoint x="300" y="220" as="targetPoint" />
            <Array as="points">
              <mxPoint x="300" y="155" />
              <mxPoint x="301" y="220" />
            </Array>
          </mxGeometry>
        </mxCell>
        <mxCell id="bT47Z3AIuODtI_xXSzZV-7" value="" style="edgeStyle=orthogonalEdgeStyle;rounded=0;orthogonalLoop=1;jettySize=auto;html=1;" parent="1" source="bT47Z3AIuODtI_xXSzZV-6" target="bT47Z3AIuODtI_xXSzZV-2" edge="1">
          <mxGeometry relative="1" as="geometry">
            <mxPoint x="500" y="220" as="sourcePoint" />
            <mxPoint x="500" y="220" as="targetPoint" />
            <Array as="points">
              <mxPoint x="500" y="155" />
              <mxPoint x="501" y="220" />
            </Array>
          </mxGeometry>
        </mxCell>
        <mxCell id="bT47Z3AIuODtI_xXSzZV-9" value="" style="edgeStyle=orthogonalEdgeStyle;rounded=0;orthogonalLoop=1;jettySize=auto;html=1;exitX=0.5;exitY=1;exitDx=0;exitDy=0;" parent="1" source="bT47Z3AIuODtI_xXSzZV-8" target="bT47Z3AIuODtI_xXSzZV-2" edge="1">
          <mxGeometry relative="1" as="geometry">
            <mxPoint x="700" y="230" as="sourcePoint" />
            <mxPoint x="700" y="220" as="targetPoint" />
            <Array as="points">
              <mxPoint x="700" y="220" />
            </Array>
          </mxGeometry>
        </mxCell>
        <mxCell id="bT47Z3AIuODtI_xXSzZV-15" value="" style="edgeStyle=orthogonalEdgeStyle;rounded=0;orthogonalLoop=1;jettySize=auto;html=1;" parent="1" source="bT47Z3AIuODtI_xXSzZV-2" target="bT47Z3AIuODtI_xXSzZV-14" edge="1">
          <mxGeometry relative="1" as="geometry" />
        </mxCell>
        <mxCell id="bT47Z3AIuODtI_xXSzZV-2" value="Cadastro" style="whiteSpace=wrap;html=1;" parent="1" vertex="1">
          <mxGeometry x="10" y="190" width="120" height="60" as="geometry" />
        </mxCell>
        <mxCell id="bT47Z3AIuODtI_xXSzZV-4" value="Usuario" style="whiteSpace=wrap;html=1;" parent="1" vertex="1">
          <mxGeometry x="240" y="30" width="120" height="60" as="geometry" />
        </mxCell>
        <mxCell id="bT47Z3AIuODtI_xXSzZV-33" value="" style="edgeStyle=orthogonalEdgeStyle;rounded=0;orthogonalLoop=1;jettySize=auto;html=1;exitX=0.5;exitY=1;exitDx=0;exitDy=0;" parent="1" source="bT47Z3AIuODtI_xXSzZV-36" target="bT47Z3AIuODtI_xXSzZV-6" edge="1">
          <mxGeometry relative="1" as="geometry">
            <mxPoint x="500" y="-50" as="targetPoint" />
          </mxGeometry>
        </mxCell>
        <mxCell id="bT47Z3AIuODtI_xXSzZV-6" value="Entregador" style="whiteSpace=wrap;html=1;" parent="1" vertex="1">
          <mxGeometry x="440" y="30" width="120" height="60" as="geometry" />
        </mxCell>
        <mxCell id="bT47Z3AIuODtI_xXSzZV-38" value="" style="edgeStyle=orthogonalEdgeStyle;rounded=0;orthogonalLoop=1;jettySize=auto;html=1;exitX=0.5;exitY=1;exitDx=0;exitDy=0;" parent="1" source="bT47Z3AIuODtI_xXSzZV-40" target="bT47Z3AIuODtI_xXSzZV-8" edge="1">
          <mxGeometry relative="1" as="geometry">
            <mxPoint x="700" y="-50" as="targetPoint" />
          </mxGeometry>
        </mxCell>
        <mxCell id="bT47Z3AIuODtI_xXSzZV-8" value="Entregas" style="whiteSpace=wrap;html=1;" parent="1" vertex="1">
          <mxGeometry x="640" y="30" width="120" height="60" as="geometry" />
        </mxCell>
        <mxCell id="bT47Z3AIuODtI_xXSzZV-10" value="Destinatários" style="whiteSpace=wrap;html=1;" parent="1" vertex="1">
          <mxGeometry x="820" y="30" width="120" height="60" as="geometry" />
        </mxCell>
        <mxCell id="bT47Z3AIuODtI_xXSzZV-17" value="" style="edgeStyle=orthogonalEdgeStyle;rounded=0;orthogonalLoop=1;jettySize=auto;html=1;" parent="1" source="bT47Z3AIuODtI_xXSzZV-14" target="bT47Z3AIuODtI_xXSzZV-16" edge="1">
          <mxGeometry relative="1" as="geometry" />
        </mxCell>
        <mxCell id="bT47Z3AIuODtI_xXSzZV-14" value="Realizar Pedido" style="whiteSpace=wrap;html=1;" parent="1" vertex="1">
          <mxGeometry x="10" y="330" width="120" height="60" as="geometry" />
        </mxCell>
        <mxCell id="bT47Z3AIuODtI_xXSzZV-19" value="" style="edgeStyle=orthogonalEdgeStyle;rounded=0;orthogonalLoop=1;jettySize=auto;html=1;" parent="1" source="bT47Z3AIuODtI_xXSzZV-16" target="bT47Z3AIuODtI_xXSzZV-18" edge="1">
          <mxGeometry relative="1" as="geometry" />
        </mxCell>
        <mxCell id="bT47Z3AIuODtI_xXSzZV-16" value="Pedido Encaminhado" style="whiteSpace=wrap;html=1;" parent="1" vertex="1">
          <mxGeometry x="10" y="470" width="120" height="60" as="geometry" />
        </mxCell>
        <mxCell id="DCsvnR2DdF8zyNi7t5qV-4" value="" style="edgeStyle=orthogonalEdgeStyle;rounded=0;orthogonalLoop=1;jettySize=auto;html=1;" edge="1" parent="1" source="bT47Z3AIuODtI_xXSzZV-18" target="DCsvnR2DdF8zyNi7t5qV-3">
          <mxGeometry relative="1" as="geometry" />
        </mxCell>
        <mxCell id="bT47Z3AIuODtI_xXSzZV-18" value="Pedido Entregue" style="whiteSpace=wrap;html=1;" parent="1" vertex="1">
          <mxGeometry x="10" y="610" width="120" height="60" as="geometry" />
        </mxCell>
        <mxCell id="bT47Z3AIuODtI_xXSzZV-24" value="Usuario" style="swimlane;whiteSpace=wrap;html=1;startSize=40;" parent="1" vertex="1">
          <mxGeometry x="210" y="-280" width="180" height="160" as="geometry" />
        </mxCell>
        <mxCell id="bT47Z3AIuODtI_xXSzZV-31" value="CPF,&lt;div&gt;SENHA,&lt;/div&gt;&lt;div&gt;ENTREGAS EM ANDAMENTO,&lt;/div&gt;&lt;div&gt;ENDEREÇO,&lt;/div&gt;&lt;div&gt;LISTA DE ENTREGAS CONCLUIDAS&lt;/div&gt;" style="text;html=1;align=center;verticalAlign=middle;whiteSpace=wrap;rounded=0;" parent="bT47Z3AIuODtI_xXSzZV-24" vertex="1">
          <mxGeometry y="40" width="180" height="120" as="geometry" />
        </mxCell>
        <mxCell id="bT47Z3AIuODtI_xXSzZV-34" value="Entregador" style="swimlane;whiteSpace=wrap;html=1;startSize=40;" parent="1" vertex="1">
          <mxGeometry x="410" y="-280" width="180" height="160" as="geometry" />
        </mxCell>
        <mxCell id="bT47Z3AIuODtI_xXSzZV-36" value="EMAIL,&lt;div&gt;SENHA,&lt;/div&gt;&lt;div&gt;ENTREGAS EM ANDAMENTO,&lt;/div&gt;&lt;div&gt;ENTREGAS FEITAS,&lt;/div&gt;&lt;div&gt;&lt;br&gt;&lt;/div&gt;&lt;div&gt;&lt;br&gt;&lt;/div&gt;" style="text;html=1;align=center;verticalAlign=middle;whiteSpace=wrap;rounded=0;" parent="bT47Z3AIuODtI_xXSzZV-34" vertex="1">
          <mxGeometry y="60" width="180" height="100" as="geometry" />
        </mxCell>
        <mxCell id="bT47Z3AIuODtI_xXSzZV-39" value="Entregas" style="swimlane;whiteSpace=wrap;html=1;startSize=40;" parent="1" vertex="1">
          <mxGeometry x="610" y="-280" width="180" height="160" as="geometry" />
        </mxCell>
        <mxCell id="bT47Z3AIuODtI_xXSzZV-40" value="USUARIO,&lt;div&gt;ENDEREÇO,&lt;/div&gt;&lt;div&gt;STATUS,&lt;/div&gt;&lt;div&gt;FRAGIL?,&lt;/div&gt;&lt;div&gt;DESCRIÇÃO&lt;/div&gt;&lt;div&gt;ENTREGADOR&lt;/div&gt;&lt;div&gt;&lt;br&gt;&lt;/div&gt;&lt;div&gt;&lt;br&gt;&lt;/div&gt;" style="text;html=1;align=center;verticalAlign=middle;whiteSpace=wrap;rounded=0;" parent="bT47Z3AIuODtI_xXSzZV-39" vertex="1">
          <mxGeometry y="70" width="180" height="90" as="geometry" />
        </mxCell>
        <mxCell id="DCsvnR2DdF8zyNi7t5qV-3" value="FIM" style="ellipse;whiteSpace=wrap;html=1;" vertex="1" parent="1">
          <mxGeometry x="30" y="740" width="80" height="80" as="geometry" />
        </mxCell>
        <mxCell id="bT47Z3AIuODtI_xXSzZV-26" style="edgeStyle=orthogonalEdgeStyle;rounded=0;orthogonalLoop=1;jettySize=auto;html=1;" parent="1" source="bT47Z3AIuODtI_xXSzZV-31" target="bT47Z3AIuODtI_xXSzZV-4" edge="1">
          <mxGeometry relative="1" as="geometry" />
        </mxCell>
        <mxCell id="DCsvnR2DdF8zyNi7t5qV-5" value="" style="endArrow=classic;html=1;rounded=0;" edge="1" parent="1" target="bT47Z3AIuODtI_xXSzZV-2">
          <mxGeometry width="50" height="50" relative="1" as="geometry">
            <mxPoint x="880" y="80" as="sourcePoint" />
            <mxPoint x="440" y="130" as="targetPoint" />
            <Array as="points">
              <mxPoint x="880" y="220" />
            </Array>
          </mxGeometry>
        </mxCell>
      </root>
    </mxGraphModel>
  </diagram>
</mxfile>
